# Blender 3.5.1
# www.blender.org
mtllib piso.mtl
o Cubo
v -33.811657 -1.000000 28.362270
v -33.811657 1.000000 28.362270
v -33.811657 -1.000000 -32.202126
v -33.811657 1.000000 -32.202126
v 28.528908 -1.000000 28.362270
v 28.528908 1.000000 28.362270
v 28.528908 -1.000000 -32.202126
v 28.528908 1.000000 -32.202126
vn -1.0000 -0.0000 -0.0000
vn -0.0000 -0.0000 -1.0000
vn 1.0000 -0.0000 -0.0000
vn -0.0000 -0.0000 1.0000
vn -0.0000 -1.0000 -0.0000
vn -0.0000 1.0000 -0.0000
vt 0.375000 0.000000
vt 0.375000 1.000000
vt 0.125000 0.750000
vt 0.625000 0.000000
vt 0.625000 1.000000
vt 1.001481 1.003371
vt 0.125000 0.500000
vt 0.375000 0.250000
vt 0.625000 0.250000
vt 1.000847 -0.000355
vt 0.375000 0.750000
vt 0.625000 0.750000
vt -0.004149 0.998720
vt 0.375000 0.500000
vt -0.001405 0.001494
vt 0.625000 0.500000
s 0
g off
g Cubo_Material.003
usemtl Material.003
f 2/4/1 3/8/1 1/1/1
f 4/9/2 7/14/2 3/8/2
f 8/16/3 5/11/3 7/14/3
f 6/12/4 1/2/4 5/11/4
f 7/14/5 1/3/5 3/7/5
f 4/10/6 6/13/6 8/15/6
f 2/4/1 4/9/1 3/8/1
f 4/9/2 8/16/2 7/14/2
f 8/16/3 6/12/3 5/11/3
f 6/12/4 2/5/4 1/2/4
f 7/14/5 5/11/5 1/3/5
f 4/10/6 2/6/6 6/13/6
